<svg width="19" height="20" viewBox="0 0 19 20" fill="none" xmlns="http://www.w3.org/2000/svg">
<path d="M9.48828 5.98737C8.38828 5.98737 7.44661 6.37903 6.66328 7.16237C5.87995 7.9457 5.48828 8.88737 5.48828 9.98737C5.48828 10.827 5.72703 11.586 6.20453 12.2644C6.6822 12.9425 7.31203 13.431 8.09403 13.7296C8.2197 13.7861 8.31428 13.8794 8.37778 14.0094C8.44111 14.1395 8.44653 14.2674 8.39403 14.3931C8.34153 14.5111 8.25945 14.6028 8.14778 14.6681C8.03628 14.7334 7.92161 14.7399 7.80378 14.6874C6.80495 14.3284 6.0027 13.7213 5.39703 12.8661C4.7912 12.0111 4.48828 11.0515 4.48828 9.98737C4.48828 8.6027 4.97545 7.4232 5.94978 6.44887C6.92411 5.47453 8.10361 4.98737 9.48828 4.98737C10.5434 4.98737 11.5028 5.29028 12.3663 5.89612C13.2296 6.50178 13.8389 7.30145 14.194 8.29512C14.2427 8.41295 14.2321 8.53087 14.1623 8.64887C14.0924 8.76687 13.9985 8.8502 13.8805 8.89887C13.742 8.95153 13.61 8.94512 13.4845 8.87962C13.3589 8.81428 13.2678 8.71237 13.2113 8.57387C12.9126 7.79187 12.4242 7.16528 11.746 6.69412C11.0679 6.22295 10.3153 5.98737 9.48828 5.98737ZM9.48828 1.98737C7.25495 1.98737 5.36328 2.76237 3.81328 4.31237C2.26328 5.86237 1.48828 7.75403 1.48828 9.98737C1.48828 12.2155 2.23761 14.0924 3.73628 15.6181C5.23511 17.1438 7.08386 17.9297 9.28253 17.9759C9.42486 17.9835 9.5457 18.038 9.64503 18.1394C9.74436 18.2405 9.79212 18.3623 9.78828 18.5046C9.78445 18.647 9.73478 18.7681 9.63928 18.8681C9.54378 18.9681 9.42486 19.0162 9.28253 19.0124C8.03386 18.9932 6.87586 18.7323 5.80853 18.2296C4.7412 17.7271 3.81236 17.0634 3.02203 16.2384C2.23153 15.4134 1.61161 14.4615 1.16228 13.3826C0.712948 12.3038 0.488281 11.172 0.488281 9.98737C0.488281 8.74503 0.725115 7.57645 1.19878 6.48162C1.67261 5.38678 2.31461 4.4342 3.12478 3.62387C3.93511 2.8137 4.8877 2.1717 5.98253 1.69787C7.07736 1.2242 8.24595 0.987366 9.48828 0.987366C11.8613 0.987366 13.9449 1.82453 15.7393 3.49887C17.5334 5.1732 18.4581 7.26103 18.5133 9.76237C18.5209 9.90087 18.477 10.021 18.3815 10.1229C18.286 10.2249 18.1671 10.2778 18.0248 10.2816C17.8824 10.2854 17.7565 10.2354 17.647 10.1316C17.5374 10.0278 17.4787 9.9047 17.471 9.76237C17.4134 7.65987 16.6066 5.83837 15.0508 4.29787C13.4949 2.75753 11.6408 1.98737 9.48828 1.98737ZM16.7305 18.2566L12.4498 13.9624L11.9305 15.5451C11.86 15.74 11.7274 15.8365 11.5325 15.8346C11.3377 15.8326 11.2114 15.7342 11.1538 15.5394L9.70553 10.7144C9.66453 10.5567 9.69978 10.422 9.81128 10.3104C9.92295 10.1989 10.0576 10.1636 10.2153 10.2046L15.0403 11.6529C15.2351 11.7105 15.3335 11.8368 15.3355 12.0316C15.3374 12.2264 15.2409 12.3591 15.046 12.4296L13.4633 12.9489L17.7633 17.2296C17.9056 17.372 17.9768 17.5431 17.9768 17.7431C17.9768 17.9431 17.9056 18.1143 17.7633 18.2566C17.6209 18.399 17.4489 18.4701 17.247 18.4701C17.045 18.4701 16.8729 18.399 16.7305 18.2566Z" fill="#ADB2BA"/>
</svg>
