<svg width="24" height="24" viewBox="0 0 24 24" fill="none" xmlns="http://www.w3.org/2000/svg">
<path d="M4.1155 18C3.67117 18 3.29083 17.8418 2.9745 17.5255C2.65817 17.2092 2.5 16.8288 2.5 16.3845V7.6155C2.5 7.17117 2.65817 6.79083 2.9745 6.4745C3.29083 6.15817 3.67117 6 4.1155 6H12.8845C13.3288 6 13.7092 6.15817 14.0255 6.4745C14.3418 6.79083 14.5 7.17117 14.5 7.6155V16.3845C14.5 16.8288 14.3418 17.2092 14.0255 17.5255C13.7092 17.8418 13.3288 18 12.8845 18H4.1155ZM17.3173 11C17.0788 11 16.8829 10.9234 16.7298 10.7702C16.5766 10.6171 16.5 10.4213 16.5 10.1828V6.81725C16.5 6.57875 16.5766 6.38292 16.7298 6.22975C16.8829 6.07658 17.0788 6 17.3173 6H20.6828C20.9213 6 21.1171 6.07658 21.2703 6.22975C21.4234 6.38292 21.5 6.57875 21.5 6.81725V10.1828C21.5 10.4213 21.4234 10.6171 21.2703 10.7702C21.1171 10.9234 20.9213 11 20.6828 11H17.3173ZM17.5 10H20.5V7H17.5V10ZM4.1155 17H12.8845C13.064 17 13.2115 16.9423 13.327 16.827C13.4423 16.7115 13.5 16.564 13.5 16.3845V7.6155C13.5 7.436 13.4423 7.2885 13.327 7.173C13.2115 7.05767 13.064 7 12.8845 7H4.1155C3.936 7 3.7885 7.05767 3.673 7.173C3.55767 7.2885 3.5 7.436 3.5 7.6155V16.3845C3.5 16.564 3.55767 16.7115 3.673 16.827C3.7885 16.9423 3.936 17 4.1155 17ZM5.5 14.9038H11.5C11.6552 14.9038 11.7715 14.8313 11.849 14.6865C11.9267 14.5417 11.918 14.3988 11.823 14.2578L10.198 12.0827C10.1108 11.9751 10.0032 11.9213 9.875 11.9213C9.74683 11.9213 9.63917 11.9751 9.552 12.0827L8 14.1538L6.948 12.7578C6.86083 12.6501 6.75317 12.5963 6.625 12.5963C6.49683 12.5963 6.38917 12.6501 6.302 12.7578L5.177 14.2578C5.082 14.3988 5.07333 14.5417 5.151 14.6865C5.2285 14.8313 5.34483 14.9038 5.5 14.9038ZM17.3173 18C17.0788 18 16.8829 17.9234 16.7298 17.7703C16.5766 17.6171 16.5 17.4212 16.5 17.1827V13.8173C16.5 13.5788 16.5766 13.3829 16.7298 13.2298C16.8829 13.0766 17.0788 13 17.3173 13H20.6828C20.9213 13 21.1171 13.0766 21.2703 13.2298C21.4234 13.3829 21.5 13.5788 21.5 13.8173V17.1827C21.5 17.4212 21.4234 17.6171 21.2703 17.7703C21.1171 17.9234 20.9213 18 20.6828 18H17.3173ZM17.5 17H20.5V14H17.5V17Z" fill="#ADB2BA"/>
</svg>
