<svg width="9" height="9" viewBox="0 0 9 9" fill="none" xmlns="http://www.w3.org/2000/svg">
<path d="M4.46978 5.18075L0.877534 8.773C0.771034 8.87933 0.653034 8.92933 0.523534 8.923C0.394034 8.9165 0.276117 8.86008 0.169784 8.75375C0.0634504 8.64742 0.0102836 8.52625 0.0102836 8.39025C0.0102836 8.25442 0.0634504 8.13325 0.169784 8.02675L3.74278 4.45375L0.150534 0.886501C0.0442007 0.780001 -0.00579931 0.658834 0.000534024 0.523001C0.00703402 0.387168 0.0634504 0.266 0.169784 0.1595C0.276117 0.0531668 0.397284 0 0.533284 0C0.669117 0 0.790283 0.0531668 0.896783 0.1595L4.46978 3.75175L8.03703 0.1595C8.14353 0.0531668 8.26153 0 8.39103 0C8.52053 0 8.63845 0.0531668 8.74478 0.1595C8.85512 0.269833 8.91028 0.391917 8.91028 0.525751C8.91028 0.659751 8.85512 0.780001 8.74478 0.886501L5.17178 4.45375L8.76403 8.046C8.87037 8.1525 8.92353 8.2705 8.92353 8.4C8.92353 8.5295 8.87037 8.64742 8.76403 8.75375C8.6537 8.86408 8.53162 8.91925 8.39778 8.91925C8.26378 8.91925 8.14353 8.86408 8.03703 8.75375L4.46978 5.18075Z" fill="#232323"/>
</svg>
