<svg width="24" height="24" viewBox="0 0 24 24" fill="none" xmlns="http://www.w3.org/2000/svg">
<mask id="mask0_913_15074" style="mask-type:alpha" maskUnits="userSpaceOnUse" x="0" y="0" width="24" height="24">
<rect width="24" height="24" fill="#D9D9D9"/>
</mask>
<g mask="url(#mask0_913_15074)">
<path d="M14.2172 17.1538C14.3237 17.0513 14.3821 16.9327 14.3923 16.798C14.4026 16.6635 14.3545 16.543 14.248 16.4365L11.0885 13.05L11.1135 12.975H11.3635C12.3403 12.975 13.1374 12.7257 13.7548 12.227C14.3721 11.7282 14.7218 11.0608 14.8038 10.225H15.3635C15.48 10.225 15.5761 10.1852 15.6518 10.1055C15.7276 10.0257 15.7655 9.92883 15.7655 9.815C15.7655 9.70117 15.7276 9.60608 15.6518 9.52975C15.5761 9.45358 15.48 9.4155 15.3635 9.4155H14.7788C14.7288 9.06283 14.6188 8.742 14.449 8.453C14.2792 8.16383 14.0641 7.91092 13.8038 7.69425H15.3635C15.48 7.69425 15.5761 7.65442 15.6518 7.57475C15.7276 7.49492 15.7655 7.39808 15.7655 7.28425C15.7655 7.17042 15.7276 7.07533 15.6518 6.999C15.5761 6.92267 15.48 6.8845 15.3635 6.8845H8.67125C8.55075 6.8845 8.44783 6.9275 8.3625 7.0135C8.27717 7.09933 8.2345 7.20283 8.2345 7.324C8.2345 7.44517 8.27717 7.54675 8.3625 7.62875C8.44783 7.71092 8.55075 7.752 8.67125 7.752H11.423C12.0743 7.752 12.6112 7.89875 13.0337 8.19225C13.4561 8.48592 13.7172 8.89367 13.8173 9.4155H8.6365C8.52 9.4155 8.42392 9.45533 8.34825 9.535C8.27242 9.61467 8.2345 9.71142 8.2345 9.82525C8.2345 9.93925 8.27242 10.0343 8.34825 10.1105C8.42392 10.1868 8.52 10.225 8.6365 10.225H13.8422C13.7679 10.802 13.5153 11.2562 13.0845 11.5875C12.6538 11.9188 12.0943 12.0845 11.4058 12.0845H10.7058C10.5256 12.0845 10.3697 12.1282 10.238 12.2155C10.1063 12.3027 10.0116 12.4187 9.95375 12.5635C9.89608 12.7083 9.8775 12.8542 9.898 13.001C9.9185 13.1478 9.991 13.2917 10.1155 13.4327L13.5193 17.1288C13.6218 17.2353 13.7372 17.2917 13.8655 17.298C13.9937 17.3045 14.1109 17.2564 14.2172 17.1538ZM12.0033 21C10.7587 21 9.58867 20.7638 8.493 20.2915C7.3975 19.8192 6.4445 19.1782 5.634 18.3685C4.8235 17.5588 4.18192 16.6067 3.70925 15.512C3.23642 14.4175 3 13.2479 3 12.0033C3 10.7587 3.23617 9.58867 3.7085 8.493C4.18083 7.3975 4.82183 6.4445 5.6315 5.634C6.44117 4.8235 7.39333 4.18192 8.488 3.70925C9.5825 3.23642 10.7521 3 11.9967 3C13.2413 3 14.4113 3.23617 15.507 3.7085C16.6025 4.18083 17.5555 4.82183 18.366 5.6315C19.1765 6.44117 19.8181 7.39333 20.2908 8.488C20.7636 9.5825 21 10.7521 21 11.9967C21 13.2413 20.7638 14.4113 20.2915 15.507C19.8192 16.6025 19.1782 17.5555 18.3685 18.366C17.5588 19.1765 16.6067 19.8181 15.512 20.2908C14.4175 20.7636 13.2479 21 12.0033 21ZM12 20C14.2333 20 16.125 19.225 17.675 17.675C19.225 16.125 20 14.2333 20 12C20 9.76667 19.225 7.875 17.675 6.325C16.125 4.775 14.2333 4 12 4C9.76667 4 7.875 4.775 6.325 6.325C4.775 7.875 4 9.76667 4 12C4 14.2333 4.775 16.125 6.325 17.675C7.875 19.225 9.76667 20 12 20Z" fill="#1C1B1F"/>
</g>
</svg>
