<svg width="11" height="10" viewBox="0 0 11 10" fill="none" xmlns="http://www.w3.org/2000/svg">
<path d="M0.941077 9.24489H1.65699L8.63241 2.6951L7.91633 2.0227L0.941077 8.57265V9.24489ZM0.815727 9.85714C0.666525 9.85714 0.541446 9.80974 0.440493 9.71494C0.339539 9.62015 0.289062 9.5027 0.289062 9.3626V8.72571C0.289062 8.5903 0.317479 8.46127 0.374313 8.33862C0.431147 8.21596 0.506781 8.1103 0.601214 8.02163L8.88311 0.236627C8.94994 0.180708 9.02367 0.137494 9.1043 0.106983C9.18504 0.0764732 9.26921 0.0612183 9.35679 0.0612183C9.44438 0.0612183 9.52925 0.0741771 9.61141 0.100095C9.69345 0.126014 9.76919 0.172698 9.83863 0.240147L10.5345 0.897239C10.6063 0.962341 10.6554 1.03377 10.6819 1.11152C10.7081 1.18938 10.7213 1.26719 10.7213 1.34494C10.7213 1.4279 10.7064 1.50729 10.6766 1.58311C10.6469 1.65882 10.5995 1.72806 10.5345 1.79081L2.2438 9.56402C2.14937 9.6527 2.03684 9.72372 1.90622 9.77709C1.7756 9.83045 1.63819 9.85714 1.49399 9.85714H0.815727ZM8.26809 2.36479L7.91633 2.0227L8.63241 2.6951L8.26809 2.36479Z" fill="white"/>
</svg>
