<svg width="45" height="36" viewBox="0 0 45 36" fill="none" xmlns="http://www.w3.org/2000/svg">
<path d="M4.82767 34.4315C6.62332 34.4315 8.41901 34.4315 10.2147 34.4315C15.6026 34.4315 20.9905 34.4315 26.3785 34.4315C30.9305 34.4315 35.4825 34.4315 40.0345 34.4315C40.2405 34.4315 42.1784 34.6198 42.2868 34.4315C42.798 33.5435 43.1903 32.5613 43.3598 31.7663C43.5675 30.7918 43.4783 29.7117 42.9942 28.8656C42.9107 28.7197 42.8154 28.5807 42.708 28.4505C41.94 27.5198 40.7179 27.1867 39.7269 26.5267C38.1791 25.4959 37.2944 23.7542 36.3249 22.1866C35.2016 20.3704 33.6184 19.4103 31.6325 18.7974C26.5536 17.2298 19.8785 18.1693 15.4982 21.3135C13.9152 22.4498 12.5242 23.9268 10.751 24.6946C9.23212 25.3523 7.55147 25.4366 5.94749 25.8114C4.34351 26.1862 2.68068 26.9723 1.9267 28.5026C1.31846 29.7372 1.46527 31.1905 1.96351 32.4355C2.60392 34.0357 3.19702 34.4315 4.82767 34.4315Z" fill="#F2FBFB"/>
<path d="M7.15294 22.3999C7.13762 22.8093 7.41836 23.1841 7.76799 23.3674C8.11762 23.5506 8.52345 23.574 8.91387 23.5531C9.34373 23.53 9.77118 23.4573 10.186 23.3366C11.012 23.0963 11.8964 22.5436 11.9186 21.5361C11.9328 20.8881 11.5449 20.4545 10.9672 20.2866C9.80896 19.95 7.20785 20.9343 7.15294 22.3999Z" fill="#F2FBFB"/>
<path d="M40.1141 25.6271C40.3643 25.788 40.6388 25.9198 40.9309 25.95C41.223 25.9801 41.5357 25.8971 41.7426 25.6789C42.0327 25.3728 42.052 24.8673 41.8948 24.4685C41.7376 24.0698 41.4372 23.7547 41.1376 23.4587C40.6469 22.9738 38.8121 21.5598 38.4378 22.9179C38.1741 23.8749 39.4451 25.1968 40.1141 25.6271Z" fill="#F2FBFB"/>
<path d="M3.57188 25.8568C3.23084 29.9982 4.66766 34.4401 4.66766 34.4401L6.92798 34.4209C6.97856 29.6157 3.57188 25.8568 3.57188 25.8568Z" fill="#61A889"/>
<path d="M5.96715 33.782C5.92979 33.7823 5.89633 33.755 5.8887 33.7152C5.34096 30.8556 4.07723 27.6114 4.06455 27.579C4.0479 27.5365 4.06732 27.4877 4.10804 27.4703C4.1483 27.4531 4.1952 27.4731 4.21184 27.5157C4.22462 27.5482 5.49401 30.8067 6.04477 33.6822C6.05342 33.7274 6.02543 33.7713 5.98234 33.7803C5.97725 33.7814 5.9722 33.7819 5.96715 33.782Z" fill="#269187"/>
<path d="M5.45312 34.4356L6.66602 34.4253C6.66602 34.4253 8.78145 32.7461 9.27393 29.4362C9.27393 29.4362 6.12221 29.7882 5.45312 34.4356Z" fill="#82BC88"/>
<path d="M6.18945 33.9634C6.17754 33.9635 6.16548 33.9608 6.15409 33.955C6.11459 33.9348 6.09818 33.885 6.11745 33.8436C6.99374 31.9634 8.57201 30.3108 8.58783 30.2943C8.61907 30.262 8.66942 30.2621 8.70035 30.2947C8.73128 30.3273 8.73112 30.3799 8.69988 30.4124C8.68424 30.4287 7.1247 32.0622 6.26047 33.9166C6.24672 33.946 6.21872 33.9631 6.18945 33.9634Z" fill="#4F9D89"/>
<path d="M41.0122 28.7382C41.0122 28.7382 38.6726 30.4017 39.3495 34.4229L41.5605 34.4417C41.5605 34.4417 42.3182 31.3444 41.0122 28.7382Z" fill="#61A889"/>
<path d="M40.1963 33.9177C40.1873 33.9177 40.1781 33.9159 40.1691 33.9125C40.1279 33.8965 40.1069 33.8484 40.1222 33.8052C40.6707 32.263 40.7332 30.0594 40.7338 30.0373C40.7349 29.9914 40.7752 29.9523 40.8155 29.9563C40.8595 29.9577 40.8942 29.996 40.893 30.0419C40.8925 30.0643 40.8292 32.2949 40.2716 33.8636C40.2595 33.8972 40.2289 33.918 40.1963 33.9177Z" fill="#269187"/>
<path d="M35.6814 26.0524C35.6814 26.0524 35.5051 30.6153 38.7635 34.4243L40.46 34.4386C40.46 34.4386 39.1737 27.6098 35.6814 26.0524Z" fill="#82BC88"/>
<path d="M39.363 33.917C39.3302 33.9168 39.2996 33.895 39.2883 33.8605C38.361 31.0187 36.0705 27.2142 36.0474 27.1761C36.024 27.1373 36.035 27.0857 36.0721 27.0612C36.1091 27.0364 36.1583 27.0482 36.1818 27.0872C36.205 27.1255 38.5054 30.9467 39.4389 33.807C39.4531 33.8505 39.431 33.8978 39.3893 33.9126C39.3807 33.9157 39.3718 33.9171 39.363 33.917Z" fill="#4F9D89"/>
<path d="M28.6953 13.0633H36.8782V11.0984" stroke="#505C81" stroke-width="2" stroke-linecap="round" stroke-dasharray="10 10"/>
<path d="M16.6363 13.0634L8.47656 13.0695V11.0742" stroke="#505C81" stroke-width="2" stroke-linecap="round" stroke-dasharray="10 10"/>
<path d="M27.4922 10.7709H32.0582V6.84094" stroke="#505C81" stroke-width="2" stroke-linecap="round" stroke-dasharray="10 10"/>
<path d="M17.8375 10.7587H13.2773V6.87732" stroke="#505C81" stroke-width="2" stroke-linecap="round" stroke-dasharray="10 10"/>
<path d="M10.0534 10.3686H6.92076C6.74877 10.3686 6.60938 10.2225 6.60938 10.0423V7.96451C6.60938 7.78427 6.74877 7.63818 6.92076 7.63818H10.0534C10.2254 7.63818 10.3648 7.78427 10.3648 7.96451V10.0423C10.3648 10.2225 10.2254 10.3686 10.0534 10.3686Z" fill="white"/>
<path d="M7.83093 8.41741C7.80227 8.42149 7.78089 8.44715 7.78089 8.47747V8.6058V9.65917C7.71959 9.62618 7.6432 9.6056 7.55908 9.6056C7.36033 9.6056 7.19922 9.71559 7.19922 9.8512C7.19922 9.98681 7.36033 10.0967 7.55908 10.0967C7.75783 10.0967 7.91894 9.98681 7.91894 9.8512V8.61769C7.91894 8.59959 7.93172 8.58421 7.94885 8.58179L9.15797 8.40897C9.17876 8.40601 9.19723 8.42289 9.19723 8.44487V9.34929C9.13593 9.31629 9.05959 9.29577 8.97547 9.29577C8.77672 9.29577 8.61561 9.40571 8.61561 9.54132C8.61561 9.67692 8.77672 9.78691 8.97547 9.78691C9.17422 9.78691 9.33528 9.67692 9.33528 9.54132V8.38359V8.27186C9.33528 8.23513 9.3044 8.2068 9.26964 8.21174L7.83093 8.41741Z" fill="#62709D"/>
<path d="M14.812 6.17735H11.8028C11.5968 6.17735 11.4297 6.00225 11.4297 5.7863V4.21423C11.4297 3.99828 11.5968 3.82318 11.8028 3.82318H14.812C15.0181 3.82318 15.1851 3.99828 15.1851 4.21423V5.7863C15.1851 6.00225 15.0181 6.17735 14.812 6.17735Z" fill="white"/>
<path d="M11.5312 6.05052C11.5994 6.12801 11.6963 6.17735 11.8048 6.17735H14.1573L12.992 4.78485C12.8659 4.6342 12.641 4.63794 12.5194 4.79261L11.5312 6.05052Z" fill="#99A0C1"/>
<path d="M13.7969 5.74871L14.1556 6.17732H14.8122C15.0183 6.17732 15.1854 6.00222 15.1854 5.78627V5.44461L14.7543 5.11129C14.6289 5.01435 14.4542 5.03002 14.3464 5.14792L13.7969 5.74871Z" fill="#6E7188"/>
<path d="M30.5411 5.55534H33.5503C33.7563 5.55534 33.9234 5.38024 33.9234 5.16429V3.59222C33.9234 3.37627 33.7563 3.20117 33.5503 3.20117H30.5411C30.3351 3.20117 30.168 3.37627 30.168 3.59222V5.16429C30.168 5.38024 30.3351 5.55534 30.5411 5.55534Z" fill="white"/>
<path d="M33.2285 3.54789H31.5714C31.5298 3.54789 31.4961 3.51252 31.4961 3.46895C31.4961 3.42534 31.5298 3.39001 31.5714 3.39001H33.2285C33.2701 3.39001 33.3038 3.42534 33.3038 3.46895C33.3038 3.51252 33.2701 3.54789 33.2285 3.54789Z" fill="#99A0C1"/>
<path d="M33.2283 3.97764H30.7511C30.7095 3.97764 30.6758 3.94232 30.6758 3.8987C30.6758 3.85513 30.7095 3.81976 30.7511 3.81976H33.2283C33.2699 3.81976 33.3036 3.85513 33.3036 3.8987C33.3036 3.94232 33.2699 3.97764 33.2283 3.97764Z" fill="#8082A8"/>
<path d="M33.2283 4.4074H30.7511C30.7095 4.4074 30.6758 4.37208 30.6758 4.32846C30.6758 4.28485 30.7095 4.24957 30.7511 4.24957H33.2283C33.2699 4.24957 33.3036 4.28485 33.3036 4.32846C33.3036 4.37208 33.2699 4.4074 33.2283 4.4074Z" fill="#99A0C1"/>
<path d="M33.2283 4.8372H30.7511C30.7095 4.8372 30.6758 4.80188 30.6758 4.75826C30.6758 4.71464 30.7095 4.67932 30.7511 4.67932H33.2283C33.2699 4.67932 33.3036 4.71464 33.3036 4.75826C33.3036 4.80188 33.2699 4.8372 33.2283 4.8372Z" fill="#8082A8"/>
<path d="M32.798 5.2669H30.7511C30.7095 5.2669 30.6758 5.23163 30.6758 5.18801C30.6758 5.14439 30.7095 5.10907 30.7511 5.10907H32.798C32.8396 5.10907 32.8733 5.14439 32.8733 5.18801C32.8733 5.23163 32.8396 5.2669 32.798 5.2669Z" fill="#99A0C1"/>
<path d="M35.3036 9.59334H38.4363C38.6083 9.59334 38.7477 9.44724 38.7477 9.267V7.18924C38.7477 7.009 38.6083 6.86292 38.4363 6.86292H35.3036C35.1316 6.86292 34.9922 7.009 34.9922 7.18924V9.267C34.9922 9.44724 35.1316 9.59334 35.3036 9.59334Z" fill="white"/>
<path d="M37.9184 8.22814C37.9184 8.83529 37.4487 9.3275 36.8693 9.3275C36.29 9.3275 35.8203 8.83529 35.8203 8.22814C35.8203 7.62099 36.29 7.12878 36.8693 7.12878C37.4487 7.12878 37.9184 7.62099 37.9184 8.22814Z" fill="#8A8FAD"/>
<path d="M37.5341 8.22818L36.5273 8.90932V7.547L37.5341 8.22818Z" fill="#C4CEF6"/>
<path d="M26.3666 7.43638H19.2511C18.9527 7.43638 18.7109 7.18297 18.7109 6.87033V2.56483C18.7109 2.25219 18.9527 1.99878 19.2511 1.99878H26.3666C26.665 1.99878 26.9068 2.25219 26.9068 2.56483V6.87033C26.9068 7.18297 26.665 7.43638 26.3666 7.43638Z" fill="#4BABEE"/>
<path d="M26.2758 6.89195H18.7873C18.5919 6.89195 18.4336 6.72602 18.4336 6.52132V1.82497C18.4336 1.62028 18.5919 1.45435 18.7873 1.45435H26.2758C26.4711 1.45435 26.6294 1.62028 26.6294 1.82497V6.52132C26.6294 6.72602 26.4711 6.89195 26.2758 6.89195Z" fill="#64C2ED"/>
<path d="M21.6726 3.14954V4.90577H21.2823L20.5426 3.96997V4.90577H20.0781V3.14954H20.4684L21.2081 4.08539V3.14954H21.6726Z" fill="white"/>
<path d="M22.603 3.53341V3.9198H23.3427V4.30362H22.603V4.90577H22.1289V3.14954H23.4433V3.53341H22.603Z" fill="white"/>
<path d="M24.1553 3.54345H23.6406V3.14954H25.1417V3.54345H24.6294V4.90577H24.1553V3.54345Z" fill="white"/>
<path d="M19.7842 6.17574C19.7251 6.17574 19.6685 6.14105 19.641 6.08162L18.928 4.53794C18.8209 4.30607 18.8209 4.0401 18.928 3.80819L19.641 2.2646C19.6793 2.18183 19.7745 2.14714 19.8534 2.18717C19.9324 2.22724 19.9655 2.32695 19.9272 2.40976L19.2143 3.9534C19.1498 4.09303 19.1498 4.25314 19.2143 4.39272L19.9272 5.93646C19.9655 6.01927 19.9324 6.11893 19.8534 6.159C19.8311 6.17036 19.8074 6.17574 19.7842 6.17574Z" fill="white"/>
<path d="M25.2058 6.17582C25.1825 6.17582 25.1589 6.17043 25.1367 6.15908C25.0576 6.119 25.0246 6.01935 25.0628 5.93653L25.7757 4.39285C25.8403 4.25322 25.8403 4.09311 25.7758 3.95352L25.0628 2.40984C25.0246 2.32702 25.0576 2.22732 25.1367 2.18724C25.2154 2.14736 25.3107 2.18181 25.3491 2.26468L26.062 3.80836C26.1692 4.04017 26.1692 4.30615 26.0619 4.53806L25.3491 6.08169C25.3216 6.14113 25.2648 6.17582 25.2058 6.17582Z" fill="white"/>
<path d="M15.2149 13.067C15.2149 13.6582 14.7576 14.1375 14.1934 14.1375C13.6292 14.1375 13.1719 13.6582 13.1719 13.067C13.1719 12.4758 13.6292 11.9965 14.1934 11.9965C14.7576 11.9965 15.2149 12.4758 15.2149 13.067Z" fill="white"/>
<path d="M14.9854 13.067C14.9854 13.5263 14.6302 13.8985 14.192 13.8985C13.7537 13.8985 13.3984 13.5263 13.3984 13.067C13.3984 12.6077 13.7537 12.2354 14.192 12.2354C14.6302 12.2354 14.9854 12.6077 14.9854 13.067Z" fill="#B3B7D2"/>
<path d="M14.1175 13.4741C14.1044 13.4741 14.0912 13.47 14.0797 13.4616L13.7785 13.2424C13.7484 13.2205 13.741 13.1772 13.7619 13.1458C13.7828 13.1143 13.8241 13.1065 13.8541 13.1284L14.1016 13.3085L14.5239 12.6889C14.5451 12.6576 14.5865 12.6504 14.6164 12.6728C14.6461 12.6951 14.653 12.7385 14.6318 12.7697L14.1715 13.445C14.1585 13.4639 14.1382 13.4741 14.1175 13.4741Z" fill="white"/>
<path d="M32.2017 13.067C32.2017 13.6713 31.7342 14.1612 31.1575 14.1612C30.5808 14.1612 30.1133 13.6713 30.1133 13.067C30.1133 12.4626 30.5808 11.9727 31.1575 11.9727C31.7342 11.9727 32.2017 12.4626 32.2017 13.067Z" fill="white"/>
<path d="M31.9687 13.1134C31.9442 13.5822 31.5618 13.9414 31.1145 13.9157C30.6672 13.89 30.3244 13.4892 30.3489 13.0204C30.3734 12.5516 30.7558 12.1925 31.2031 12.2182C31.6505 12.2438 31.9932 12.6446 31.9687 13.1134Z" fill="#B3B7D2"/>
<path d="M31.4982 13.4965C31.4808 13.4965 31.4635 13.4896 31.4502 13.4757L30.7659 12.7585C30.7395 12.7308 30.7395 12.6859 30.7659 12.6582C30.7923 12.6305 30.8353 12.6305 30.8617 12.6582L31.5461 13.3753C31.5724 13.4031 31.5724 13.448 31.5461 13.4757C31.5329 13.4896 31.5155 13.4965 31.4982 13.4965Z" fill="white"/>
<path d="M30.8138 13.4965C30.7964 13.4965 30.7791 13.4896 30.7659 13.4757C30.7395 13.448 30.7395 13.4031 30.7659 13.3753L31.4502 12.6582C31.4767 12.6305 31.5196 12.6305 31.5461 12.6582C31.5724 12.6859 31.5724 12.7308 31.5461 12.7585L30.8617 13.4757C30.8485 13.4896 30.8312 13.4965 30.8138 13.4965Z" fill="white"/>
<path d="M35.2151 14.8348C35.2282 14.6839 35.2655 14.5318 35.3482 14.4069C35.4309 14.282 35.5639 14.1877 35.709 14.1805C35.7527 14.1783 35.7963 14.1839 35.84 14.1839C35.9896 14.1837 36.135 14.1183 36.2843 14.1251C36.4522 14.1327 36.6123 14.2391 36.6896 14.3944C36.718 14.4515 36.736 14.5145 36.7705 14.5678C36.818 14.6412 36.8926 14.69 36.9527 14.7527C37.0662 14.8712 37.1243 15.0369 37.1512 15.2024C37.178 15.368 37.1768 15.537 37.1899 15.7044C37.194 15.7576 37.1998 15.8114 37.2188 15.8609C37.2436 15.9255 37.2893 15.9787 37.3236 16.0384C37.4299 16.2234 37.4187 16.4636 37.3374 16.6628C37.3298 16.6813 37.3208 16.7007 37.3042 16.7111C37.2915 16.719 37.2761 16.7204 37.2614 16.7215C37.0821 16.7345 36.9015 16.7269 36.724 16.6988C36.6142 16.6815 36.5043 16.6559 36.4052 16.6038C36.3074 16.5524 36.2233 16.477 36.1448 16.3975C36.0285 16.28 35.9208 16.1504 35.8476 15.9997C35.7867 15.8744 35.7509 15.7369 35.6906 15.6111C35.6503 15.527 35.5965 15.4451 35.524 15.3879C35.4693 15.3447 35.4076 15.3454 35.3513 15.3117C35.2115 15.228 35.2024 14.9802 35.2151 14.8348Z" fill="#5A3F62"/>
<path d="M33.8217 32.5063C33.8217 32.5063 33.5555 33.7536 33.5227 33.7465C33.4899 33.7393 33.0078 33.4195 33.0078 33.4195L33.2435 32.2906L33.8217 32.5063Z" fill="#FF9692"/>
<path d="M31.25 33.7696L33.6102 34.283C33.6102 34.283 33.7171 34.0993 33.6766 33.9663C33.6361 33.8332 33.7049 33.6412 33.6654 33.5853C33.6258 33.5294 33.6365 33.4784 33.4962 33.4952C33.3558 33.512 33.3471 33.5265 33.2164 33.416C33.0857 33.3054 33.0554 33.287 32.9496 33.3291C32.8439 33.3711 32.7218 33.5457 32.3182 33.5407C31.9146 33.5357 31.4794 33.518 31.3924 33.5522C31.3055 33.5865 31.25 33.7696 31.25 33.7696Z" fill="#64C2ED"/>
<path d="M31.2461 33.7707L33.6058 34.2833C33.6058 34.2833 33.6515 34.2038 33.6717 34.1116L31.3291 33.6028C31.2771 33.6686 31.2461 33.7707 31.2461 33.7707Z" fill="#459EDE"/>
<path d="M36.4843 20.6164L35.888 23.6961C35.888 23.6961 35.6411 24.4804 35.136 25.7788C35.103 25.8637 35.0348 25.9715 35.0015 26.1288C34.7617 27.205 34.5764 29.9258 33.8144 32.8387C33.8144 32.8387 33.3763 32.8721 33.0117 32.6158C33.0117 32.6158 33.4757 28.8538 33.6367 27.2008C33.6742 26.8274 33.7767 26.21 33.8004 26.0252C33.8743 25.4504 34.1777 23.5735 34.3924 22.8814C34.6697 21.9872 34.8033 20.6495 34.8033 20.6495L36.4843 20.6164Z" fill="#5A3F62"/>
<path d="M36.0371 21.6655C36.0371 21.6655 35.4122 25.1862 35.3945 25.2393C35.7605 24.2677 35.9406 23.6969 35.9406 23.6969C35.9406 23.6969 35.9431 23.7161 35.9472 23.749L36.221 22.2555C36.221 22.2555 36.1583 22.3446 36.0371 21.6655Z" fill="#412C46"/>
<path d="M37.0833 32.6336C37.0833 32.6336 37.0986 33.913 37.0651 33.9137C37.0316 33.9143 36.4916 33.7151 36.4916 33.7151L36.4727 32.5586L37.0833 32.6336Z" fill="#FF9692"/>
<path d="M34.8477 34.4712L37.2639 34.4215C37.2639 34.4215 37.3275 34.2166 37.2585 34.0959C37.1896 33.9751 37.2142 33.7709 37.1632 33.7254C37.1122 33.68 37.1113 33.6276 36.9782 33.6769C36.845 33.7261 36.8397 33.7424 36.6877 33.6647C36.5358 33.5871 36.5021 33.5761 36.4083 33.642C36.3144 33.708 36.234 33.9074 35.8392 33.997C35.4443 34.0866 35.0159 34.171 34.9386 34.225C34.8614 34.279 34.8477 34.4712 34.8477 34.4712Z" fill="#64C2ED"/>
<path d="M34.8516 34.4709L37.2671 34.4225C37.2671 34.4225 37.294 34.3348 37.2932 34.2409L34.8953 34.2889C34.8592 34.3648 34.8516 34.4709 34.8516 34.4709Z" fill="#459EDE"/>
<path d="M37.3118 20.8117C37.3118 20.8117 37.5144 21.5264 37.4254 22.9839C37.3592 24.068 37.1799 25.5933 37.1397 27.1073C37.1258 27.6288 37.1508 28.2505 37.1452 28.7089C37.1233 30.4981 37.1519 32.8983 37.1519 32.8983C37.1519 32.8983 36.8849 33.0793 36.3405 32.7928C36.3405 32.7928 36.1029 27.4749 36.0721 27.0263C36.0413 26.5778 35.9356 23.3489 35.9356 23.3489L35.7266 20.7336L37.3118 20.8117Z" fill="#5A3F62"/>
<path d="M36.8934 16.6477C36.9558 16.6141 37.2848 16.5161 37.505 16.7035C37.6824 16.8545 38.0804 18.6299 38.2452 18.8713C38.4101 19.1126 40.4388 21.0404 40.6524 21.1838L40.2412 21.5497C40.2412 21.5497 38.7349 20.4136 38.291 20.0584C37.8471 19.7032 37.3881 19.1508 37.3881 19.1508C37.3881 19.1508 36.589 16.812 36.8934 16.6477Z" fill="#64C2ED"/>
<path d="M37.6115 19.3917C37.603 19.3824 37.377 19.1284 37.377 19.1284L36.9531 17.686C36.9531 17.686 37.3365 18.464 37.1364 17.6277C37.1364 17.6277 37.4065 18.1731 37.5107 18.9631L37.6115 19.3917Z" fill="#33A1CE"/>
<path d="M40.5356 21.2509C40.5356 21.2509 40.6118 21.3236 40.7277 21.3519C40.8437 21.3802 40.9867 21.4323 40.9925 21.4535C40.9984 21.4748 40.9513 21.52 40.8538 21.5132C40.8538 21.5132 41.4393 21.8393 41.4896 21.8913C41.54 21.9433 41.5008 21.9819 41.4099 21.9512C41.3191 21.9205 40.9475 21.7459 40.9475 21.7459C40.9475 21.7459 41.4554 22.1041 41.4838 22.145C41.5122 22.186 41.4952 22.24 41.4076 22.1959C41.3199 22.1518 40.927 21.9182 40.927 21.9182C40.927 21.9182 41.2225 22.2005 41.221 22.2354C41.2195 22.2704 41.1651 22.2757 41.1206 22.2449C41.0761 22.2141 40.7353 21.945 40.7353 21.945C40.7353 21.945 40.8837 22.1231 40.8732 22.1503C40.8626 22.1775 40.7982 22.1617 40.7398 22.1148C40.6815 22.0679 40.6043 21.9966 40.5368 21.8851C40.4693 21.7736 40.4995 21.7838 40.4002 21.6971C40.3008 21.6105 40.2305 21.5221 40.2305 21.5221L40.5356 21.2509Z" fill="#FF9692"/>
<path d="M36.3231 16.2387C36.3231 16.2387 37.2995 16.5695 37.4941 16.6963C37.6887 16.8232 37.2738 19.1409 37.2738 19.1409C37.2738 19.1409 37.3293 19.7927 37.3865 20.1637C37.4438 20.5348 37.5563 20.9387 37.5563 20.9387C37.5563 20.9387 37.0492 21.1236 36.3436 21.1183C35.638 21.1131 34.6609 21.061 34.6609 21.061C34.6609 21.061 34.8127 20.1038 34.7653 19.693C34.718 19.2823 34.6171 18.3891 34.6651 18.1535C34.6651 18.1535 34.3934 16.7289 34.6358 16.6135C34.8783 16.4982 35.5324 16.3013 35.5324 16.3013L36.3231 16.2387Z" fill="#64C2ED"/>
<path d="M34.6689 18.1477C34.6487 18.2461 34.6548 18.4596 34.672 18.7044L34.8564 17.7072L34.6689 18.1477Z" fill="#33A1CE"/>
<path d="M36.2676 15.8446C36.2676 15.8446 36.2695 16.1946 36.3177 16.2334C36.366 16.2723 36.2034 16.7623 36.0113 16.8731C36.0113 16.8731 35.6616 16.7921 35.5273 16.2959C35.5273 16.2959 35.6048 16.2693 35.6088 16.2224C35.6128 16.1756 35.5949 15.8087 35.5949 15.8087L36.2676 15.8446Z" fill="#F68788"/>
<path d="M29.8914 20.5792C29.6351 20.5228 29.4893 20.5381 29.4716 20.5734C29.454 20.6087 29.4501 20.6417 29.4501 20.6417C29.4501 20.6417 28.8196 20.7327 28.7566 20.7792C28.6936 20.8257 28.7154 20.8766 28.7351 20.8926C28.7548 20.9087 29.2731 20.8755 29.2731 20.8755C29.2731 20.8755 29.2324 20.9867 29.2975 21.0245C29.2784 21.0768 29.2902 21.1181 29.3355 21.1466C29.3476 21.1542 29.3618 21.1604 29.368 21.1736C29.3717 21.1815 29.3718 21.1908 29.373 21.1996C29.3793 21.2457 29.4179 21.281 29.4605 21.2948C29.5031 21.3085 29.5492 21.3046 29.5937 21.2988C29.6795 21.2875 29.7659 21.2688 29.8433 21.2276C29.9041 21.1952 29.9577 21.1497 30.0159 21.1122C30.087 21.0665 30.1646 21.0329 30.2437 21.0053C30.2864 20.9904 30.332 20.9756 30.3619 20.9401L30.2066 20.5809C30.2066 20.5809 30.1477 20.6356 29.8914 20.5792Z" fill="#FF9692"/>
<path d="M29.7501 21.022C29.7562 21.0002 29.7484 20.9754 29.7301 20.9585C29.7223 20.9515 29.7133 20.9458 29.7035 20.9414C29.7197 20.927 29.7323 20.9093 29.7331 20.8867C29.7339 20.8646 29.7216 20.8425 29.701 20.8289C29.6834 20.8174 29.6628 20.8134 29.645 20.8111C29.5509 20.7989 29.4543 20.821 29.3692 20.8404L29.2765 20.8619L29.2461 20.8775C29.2656 20.8763 29.278 20.8755 29.278 20.8755C29.278 20.8755 29.2754 20.8828 29.2725 20.8941L29.2848 20.8878L29.3744 20.8674C29.4575 20.8485 29.5517 20.827 29.6412 20.8386C29.6562 20.8406 29.6733 20.8437 29.6867 20.8525C29.6992 20.8607 29.707 20.874 29.7066 20.8862C29.706 20.9051 29.688 20.9205 29.6684 20.9346C29.6518 20.9384 29.4137 20.9941 29.2976 21.0121L29.2911 21.0149C29.2947 21.0183 29.2978 21.0221 29.3024 21.0248C29.3004 21.0304 29.3001 21.0355 29.2988 21.0409L29.3041 21.0385C29.4178 21.0213 29.6554 20.9658 29.6736 20.9616C29.6886 20.9642 29.7022 20.9703 29.7125 20.9796C29.7212 20.9876 29.7284 21.0015 29.7246 21.0146C29.7215 21.0256 29.7111 21.0346 29.7017 21.0422C29.6914 21.0501 29.6791 21.0589 29.6661 21.063L29.6474 21.0689L29.648 21.0698C29.5966 21.0889 29.437 21.1474 29.3717 21.1605L29.3618 21.1617C29.3662 21.1652 29.3706 21.1689 29.3731 21.1742C29.375 21.1783 29.375 21.1831 29.3757 21.1877C29.4474 21.1733 29.6182 21.1102 29.663 21.0934C29.6727 21.115 29.6674 21.1452 29.6497 21.1621C29.6377 21.1727 29.6206 21.1782 29.6056 21.1831L29.5256 21.2091C29.5184 21.2113 29.5144 21.2191 29.5165 21.2263C29.5186 21.2336 29.526 21.2378 29.533 21.2355L29.613 21.2094C29.6296 21.2041 29.6504 21.1975 29.6666 21.183C29.6684 21.1815 29.6702 21.1798 29.6718 21.1781C29.6951 21.1532 29.7018 21.1135 29.6891 21.0829C29.6996 21.0775 29.7091 21.0707 29.7173 21.0642C29.7305 21.0541 29.7448 21.041 29.7501 21.022Z" fill="#DB7587"/>
<path d="M35.3694 17.9281C35.3694 17.9281 34.2319 19.3064 34.0625 19.5408C33.7511 19.9689 30.8293 20.9918 30.334 21.0591C30.334 21.0591 30.2469 20.7578 30.1836 20.5624C30.1836 20.5624 31.3153 20.1627 31.8024 19.9726C32.2896 19.7826 33.4586 18.8982 33.5058 18.8809C33.5529 18.8636 34.4402 16.7873 34.6446 16.6082C34.8539 16.4249 35.07 16.5105 35.2864 16.5728C35.5143 16.6386 35.4341 18.1565 35.3694 17.9281Z" fill="#64C2ED"/>
<path d="M35.2852 15.2242C35.2852 15.2242 35.3838 16.0953 35.7882 16.156C36.1926 16.2167 36.4006 15.5031 36.4055 15.4796C36.4104 15.4561 36.55 15.4509 36.5452 15.2878C36.5403 15.1247 36.4536 15.0288 36.4148 15.0419C36.3761 15.055 36.3785 15.3232 36.3225 15.3195C36.2664 15.3157 36.2342 14.9845 36.2005 14.98C36.1668 14.9754 36.1203 15.1054 35.9514 15.0651C35.7825 15.0248 35.78 14.9433 35.657 14.942C35.534 14.9409 35.4902 14.9716 35.4146 14.8753C35.4147 14.9442 35.3919 15.0079 35.3752 15.0746C35.3585 15.1413 35.3512 15.2218 35.2852 15.2242Z" fill="#FF9692"/>
<path d="M26.6162 22.5587H34.9069L32.943 16.782H24.6523L26.6162 22.5587Z" fill="#6E7188"/>
<path d="M26.4418 22.5587H34.6123L32.7252 17.0078H24.5547L26.4418 22.5587Z" fill="#99A0C1"/>
<path d="M27.8772 21.6385H32.3174L31.2918 18.6218H26.8516L27.8772 21.6385Z" fill="#A6AED0"/>
<path d="M24.5547 17.0077L24.6515 16.782H32.9422L32.7252 17.0077H24.5547Z" fill="#8A8FAD"/>
<path d="M28.9288 19.5868L27.8984 25.17V33.9067H28.9288V25.17L29.9591 19.5868H28.9288Z" fill="#62709D"/>
<path d="M29.9601 19.5868L28.9297 25.17V33.9067H29.2645V25.7225L30.3702 21.0976L29.9601 19.5868Z" fill="#505C81"/>
<path d="M32.111 33.8351H26.4531V34.4315H32.111V33.8351Z" fill="#99A0C1"/>
<path d="M32.1127 33.8351H29.8555V34.4315H32.1127V33.8351Z" fill="#868BA8"/>
<path d="M19.0409 34.4315H17.0547V32.969H19.0409V34.4315Z" fill="#3C4564"/>
<path d="M19.3203 34.4315H19.8605V28.1403H19.3203V34.4315Z" fill="#3C4564"/>
<path d="M19.3203 34.4315H16.6875V28.1403H19.3203V34.4315Z" fill="#505C81"/>
<path d="M17.9156 32.1746H17.0117V28.4794H17.9156V32.1746Z" fill="#323954"/>
<path d="M19.0991 28.8302H18.1172V28.4794H19.0991V28.8302Z" fill="#99A0C1"/>
<path d="M19.0991 29.4616H18.1172V29.1108H19.0991V29.4616Z" fill="#99A0C1"/>
<path d="M19.0991 30.0931H18.1172V29.7423H19.0991V30.0931Z" fill="#99A0C1"/>
<path d="M19.0991 30.7246H18.1172V30.3738H19.0991V30.7246Z" fill="#99A0C1"/>
<path d="M17.8017 28.801H17.1211V28.7308H17.8017V28.801Z" fill="#505C81"/>
<path d="M17.8017 29.2863H17.1211V29.2161H17.8017V29.2863Z" fill="#505C81"/>
<path d="M17.8017 29.7716H17.1211V29.7014H17.8017V29.7716Z" fill="#505C81"/>
<path d="M17.8017 30.2569H17.1211V30.1867H17.8017V30.2569Z" fill="#505C81"/>
<path d="M17.8017 30.7422H17.1211V30.672H17.8017V30.7422Z" fill="#505C81"/>
<path d="M17.8017 31.2274H17.1211V31.1573H17.8017V31.2274Z" fill="#505C81"/>
<path d="M17.8017 31.7127H17.1211V31.6426H17.8017V31.7127Z" fill="#505C81"/>
<path d="M18.8542 34.2444H18.0508V33.519H18.8542V34.2444Z" fill="#323954"/>
<path d="M23.2956 34.1333H19.7695V34.4315H23.2956V34.1333Z" fill="#868BA8"/>
<path d="M20.1927 33.8351H18.4297V34.1333H20.1927V33.8351Z" fill="#99A0C1"/>
<path d="M22.5117 30.9804H22.7628V34.4315H22.5117V30.9804Z" fill="#99A0C1"/>
<path d="M23.0694 31.2157H22.2539V30.9804H23.0694V31.2157Z" fill="#505C81"/>
<path d="M26.8974 34.4315H24.4219V28.5159H26.8974V34.4315Z" fill="#505C81"/>
<path d="M26.6958 34.4315H24.8281V33.0563H26.6958V34.4315Z" fill="#3C4564"/>
<path d="M26.8984 34.4315H27.4063V28.5159H26.8984V34.4315Z" fill="#3C4564"/>
<path d="M25.5725 32.3094H24.7227V28.8348H25.5725V32.3094Z" fill="#323954"/>
<path d="M26.6851 29.1647H25.7617V28.8348H26.6851V29.1647Z" fill="#99A0C1"/>
<path d="M26.6851 29.7585H25.7617V29.4286H26.6851V29.7585Z" fill="#99A0C1"/>
<path d="M26.6851 30.3522H25.7617V30.0223H26.6851V30.3522Z" fill="#99A0C1"/>
<path d="M26.6851 30.946H25.7617V30.6161H26.6851V30.946Z" fill="#99A0C1"/>
<path d="M25.4682 29.1372H24.8281V29.0712H25.4682V29.1372Z" fill="#505C81"/>
<path d="M25.4682 29.5936H24.8281V29.5276H25.4682V29.5936Z" fill="#505C81"/>
<path d="M25.4682 30.0499H24.8281V29.9839H25.4682V30.0499Z" fill="#505C81"/>
<path d="M25.4682 30.5062H24.8281V30.4402H25.4682V30.5062Z" fill="#505C81"/>
<path d="M25.4682 30.9624H24.8281V30.8965H25.4682V30.9624Z" fill="#505C81"/>
<path d="M25.4682 31.4188H24.8281V31.3528H25.4682V31.4188Z" fill="#505C81"/>
<path d="M25.4682 31.8751H24.8281V31.8091H25.4682V31.8751Z" fill="#505C81"/>
<path d="M26.4117 34.2557H25.6562V33.5736H26.4117V34.2557Z" fill="#323954"/>
<path d="M24.6654 25.7706H20.2695V24.6281H24.6654V25.7706Z" fill="#62709D"/>
<path d="M24.6641 25.7706H25.0692V24.6281H24.6641V25.7706Z" fill="#505C81"/>
<path d="M23.7134 25.0769H20.5117V24.959H23.7134V25.0769Z" fill="#434E70"/>
<path d="M23.7134 25.4396H20.5117V25.3217H23.7134V25.4396Z" fill="white"/>
<path d="M24.3617 25.1993C24.3617 25.2995 24.2843 25.3807 24.1887 25.3807C24.0931 25.3807 24.0156 25.2995 24.0156 25.1993C24.0156 25.0991 24.0931 25.0179 24.1887 25.0179C24.2843 25.0179 24.3617 25.0991 24.3617 25.1993Z" fill="#FF6292"/>
<path d="M24.6654 27.5072H20.2695V26.3646H24.6654V27.5072Z" fill="#62709D"/>
<path d="M24.6641 27.5072H25.0692V26.3646H24.6641V27.5072Z" fill="#505C81"/>
<path d="M23.7134 26.8135H20.5117V26.6956H23.7134V26.8135Z" fill="#434E70"/>
<path d="M23.7134 27.1762H20.5117V27.0583H23.7134V27.1762Z" fill="white"/>
<path d="M24.3617 26.9359C24.3617 27.0361 24.2843 27.1173 24.1887 27.1173C24.0931 27.1173 24.0156 27.0361 24.0156 26.9359C24.0156 26.8357 24.0931 26.7546 24.1887 26.7546C24.2843 26.7546 24.3617 26.8357 24.3617 26.9359Z" fill="#FFD65B"/>
<path d="M24.6654 29.2438H20.2695V28.1012H24.6654V29.2438Z" fill="#62709D"/>
<path d="M24.6641 29.2438H25.0692V28.1012H24.6641V29.2438Z" fill="#505C81"/>
<path d="M23.7134 28.5501H20.5117V28.4323H23.7134V28.5501Z" fill="#434E70"/>
<path d="M23.7134 28.9129H20.5117V28.795H23.7134V28.9129Z" fill="white"/>
<path d="M24.3617 28.6725C24.3617 28.7727 24.2843 28.8539 24.1887 28.8539C24.0931 28.8539 24.0156 28.7727 24.0156 28.6725C24.0156 28.5724 24.0931 28.4911 24.1887 28.4911C24.2843 28.4911 24.3617 28.5724 24.3617 28.6725Z" fill="#FF6292"/>
<path d="M24.6654 30.9805H20.2695V29.8378H24.6654V30.9805Z" fill="#62709D"/>
<path d="M24.6641 30.9805H25.0692V29.8378H24.6641V30.9805Z" fill="#505C81"/>
<path d="M23.7134 30.2867H20.5117V30.1688H23.7134V30.2867Z" fill="#434E70"/>
<path d="M23.7134 30.6495H20.5117V30.5316H23.7134V30.6495Z" fill="white"/>
<path d="M24.3617 30.409C24.3617 30.5092 24.2843 30.5904 24.1887 30.5904C24.0931 30.5904 24.0156 30.5092 24.0156 30.409C24.0156 30.3088 24.0931 30.2277 24.1887 30.2277C24.2843 30.2277 24.3617 30.3088 24.3617 30.409Z" fill="#FFD65B"/>
<path d="M25.3832 34.1333H22.8555V34.4315H25.3832V34.1333Z" fill="#868BA8"/>
<path d="M26.267 33.8351H24.5039V34.1333H26.267V33.8351Z" fill="#99A0C1"/>
<path d="M28.9916 16.6066C28.9916 20.2623 26.1638 23.2258 22.6755 23.2258C19.1872 23.2258 16.3594 20.2623 16.3594 16.6066C16.3594 12.951 19.1872 9.98743 22.6755 9.98743C26.1638 9.98743 28.9916 12.951 28.9916 16.6066Z" fill="#62709D"/>
<path d="M28.3475 16.6066C28.3475 19.8882 25.8091 22.5485 22.6777 22.5485C19.5463 22.5485 17.0078 19.8882 17.0078 16.6066C17.0078 13.3249 19.5463 10.6647 22.6777 10.6647C25.8091 10.6647 28.3475 13.3249 28.3475 16.6066Z" fill="#848CB1"/>
<path d="M27.8706 16.6066C27.8706 19.6134 25.5446 22.0509 22.6755 22.0509C19.8064 22.0509 17.4805 19.6134 17.4805 16.6066C17.4805 13.5998 19.8064 11.1623 22.6755 11.1623C25.5446 11.1623 27.8706 13.5998 27.8706 16.6066Z" fill="#99A0C1"/>
<path d="M22.6758 11.7892V18.7688L25.5443 16.7004L22.6758 11.7892Z" fill="#D1D6E6"/>
<path d="M22.6758 15.5382V18.7688L25.5443 16.7004L22.6758 15.5382Z" fill="#CBCEDF"/>
<path d="M22.6732 11.7892V18.7688L19.8047 16.7004L22.6732 11.7892Z" fill="#DFE6F0"/>
<path d="M22.6732 15.5382V18.7688L19.8047 16.7004L22.6732 15.5382Z" fill="#D1D6E6"/>
<path d="M22.6758 21.444L25.6524 17.1714L22.6758 19.3882V21.444Z" fill="#D1D6E6"/>
<path d="M22.6877 21.444L19.7109 17.1714L22.6877 19.3882V21.444Z" fill="#DFE6F0"/>
<path d="M20.4141 13.1213C20.4141 13.2761 20.2943 13.4017 20.1465 13.4017C19.9987 13.4017 19.8789 13.2761 19.8789 13.1213C19.8789 12.9664 19.9987 12.8408 20.1465 12.8408C20.2943 12.8408 20.4141 12.9664 20.4141 13.1213Z" fill="#B3B7D2"/>
<path d="M17.741 21.3988H9.23828L11.2022 15.6221H19.7049L17.741 21.3988Z" fill="#3F4A6A"/>
<path d="M12.7751 20.7643H10.1641L11.7522 16.0928H14.3633L12.7751 20.7643Z" fill="#505F87"/>
<path d="M10.864 19.8201L10.6953 20.3019H12.5844L12.7531 19.8201H10.864Z" fill="#6072A0"/>
<path d="M11.0322 19.3093L10.9336 19.5939H12.8227L12.9212 19.3093H11.0322Z" fill="#6072A0"/>
<path d="M13.2563 18.2887L13.7832 16.7386H11.8941L11.3672 18.2887H13.2563Z" fill="#6072A0"/>
<path d="M17.5989 19.9212H16.3359L16.752 18.6975H18.0149L17.5989 19.9212Z" fill="#717EA3"/>
<path d="M9.23828 21.3988V21.8899H17.7354V21.3988H9.23828Z" fill="#848CB1"/>
<path d="M19.7077 15.6221L17.7383 21.3988V21.921L19.8013 15.8697L19.7077 15.6221Z" fill="#767D9E"/>
<path d="M16.4133 16.768L16.5705 16.3057H14.8525L14.6953 16.768H16.4133Z" fill="#64C2ED"/>
<path d="M15.8586 18.4286L16.0159 17.9662H14.2978L14.1406 18.4286H15.8586Z" fill="#64C2ED"/>
<path d="M17.4861 20.7643L17.6433 20.3019H13.6494L13.4922 20.7643H17.4861Z" fill="#FF5676"/>
<path d="M15.8816 18.7427H15.6516L15.5129 19.3094H15.2539L15.4883 19.876L16.0007 19.3094H15.7429L15.8816 18.7427Z" fill="#68DD85"/>
<path d="M14.4555 33.8673H13.1133V21.8899H14.4555V33.8673Z" fill="#62709D"/>
<path d="M14.4531 33.8673H15.2514L14.8266 21.8899H14.4531V33.8673Z" fill="#505C81"/>
<path d="M17.1734 33.8351H11.5156V34.4315H17.1734V33.8351Z" fill="#868BA8"/>
<path d="M15.7046 33.8351H11.5156V34.4315H15.7046V33.8351Z" fill="#99A0C1"/>
<path d="M14.1737 19.8201H14.4037L14.5659 19.2535H14.8249L14.5906 18.6869L14.0781 19.2535H14.3359L14.1737 19.8201Z" fill="#E3E6F5"/>
<path d="M16.136 17.5982L16.2932 17.1359H14.5751L14.418 17.5982H16.136Z" fill="#FFD65B"/>
<path d="M7.37373 32.3091L7.31516 33.9316H6.62891L6.67077 32.0372L7.37373 32.3091Z" fill="#FF9692"/>
<path d="M6.4611 21.3988C6.4611 21.3988 6.29374 21.89 6.46109 23.5739C6.62845 25.2578 6.7791 25.9769 6.71215 26.5908C6.64521 27.2048 6.48668 31.5958 6.55755 32.5956C6.55755 32.5956 6.91297 32.8587 7.4988 32.5956C7.4988 32.5956 7.58246 29.871 7.83353 28.2396C8.0846 26.6084 8.13483 25.6612 8.10136 25.1876C8.06789 24.714 8.16174 23.9558 8.16174 23.9558L8.6872 21.0831L6.4611 21.3988Z" fill="#5A3F62"/>
<path d="M8.32828 22.9552C8.32828 22.9552 8.01402 22.7063 7.39453 23.1442C7.39453 23.1442 7.84555 24.2091 8.0886 24.9293C8.06175 24.5082 8.32828 22.9552 8.32828 22.9552Z" fill="#412C46"/>
<path d="M6.39502 34.4315H9.25437C9.25437 34.4315 9.37794 34.1726 9.25437 34.1263C9.13081 34.0801 8.00122 33.9968 7.66585 33.7841C7.33048 33.5714 7.32169 33.4974 7.05692 33.6176C6.79215 33.7378 6.70391 33.5209 6.58034 33.56C6.45678 33.5991 6.46567 33.6916 6.45683 33.8211C6.44798 33.9506 6.3597 34.0708 6.39502 34.4315Z" fill="#64C2ED"/>
<path d="M6.38713 34.2444C6.38592 34.2993 6.38713 34.3595 6.39416 34.4315H9.25352C9.25352 34.4315 9.30125 34.3313 9.30764 34.2445L6.38713 34.2444Z" fill="#459EDE"/>
<path d="M9.04465 32.3242L9.14224 33.9383L8.45304 33.9931L8.3125 32.1107L9.04465 32.3242Z" fill="#FF9692"/>
<path d="M8.2559 34.4979L11.1056 34.2698C11.1056 34.2698 11.204 34.0063 11.0764 33.9709C10.9489 33.9355 9.8152 33.944 9.46071 33.7625C9.10622 33.5809 9.09036 33.5092 8.83798 33.648C8.58561 33.7869 8.47693 33.5815 8.35753 33.6296C8.23814 33.6778 8.25576 33.7677 8.25928 33.8952C8.26281 34.0227 8.18633 34.1475 8.2559 34.4979Z" fill="#64C2ED"/>
<path d="M8.23828 34.3159C8.24231 34.3697 8.24926 34.4285 8.26311 34.4985L11.1122 34.2702C11.1122 34.2702 11.1502 34.1683 11.1483 34.0828L8.23828 34.3159Z" fill="#459EDE"/>
<path d="M6.41016 21.1642L7.37699 24.0194C7.37699 24.0194 7.87047 25.5404 7.9616 26.1722C8.05273 26.804 8.34008 32.8583 8.34008 32.8583C8.34008 32.8583 8.78182 33.0767 9.19891 32.8413C9.19891 32.8413 9.3469 26.4667 9.27793 25.8941C9.20896 25.3216 8.59625 21.0413 8.59625 21.0413L6.41016 21.1642Z" fill="#5A3F62"/>
<path d="M5.91406 19.108C5.91406 19.108 6.08311 20.2069 6.14344 20.3239C6.20378 20.441 6.53217 20.6196 6.53217 20.6196C6.53217 20.6196 6.53071 19.0124 6.49632 19.007C6.46193 19.0016 6.01556 18.94 6.01556 18.94L5.91406 19.108Z" fill="#FF9692"/>
<path d="M5.94115 17.0534C5.69347 17.3035 5.73738 19.0786 5.73738 19.0786C5.95477 19.1451 6.51926 19.0426 6.51926 19.0426C6.51926 19.0426 6.43864 16.5509 5.94115 17.0534Z" fill="#64C2ED"/>
<path d="M6.21578 18.4427C6.19291 18.5317 6.18488 18.8592 6.15625 19.0937C6.27164 19.0804 6.35933 19.0617 6.35933 19.0617C6.35933 19.0617 6.31574 18.7319 6.31444 18.5035C6.31313 18.275 6.28497 18.1371 6.28497 18.1371C6.28497 18.1371 6.24825 18.3165 6.21578 18.4427Z" fill="#33A1CE"/>
<path d="M9.07387 18.4194L9.45699 19.218C9.45699 19.218 9.99769 19.1238 10.9833 18.9261C11.9689 18.7284 12.1342 18.6481 12.215 18.5518C12.2958 18.4555 12.4364 18.3928 12.4816 18.3928C12.5268 18.3928 12.5836 18.4346 12.5836 18.4346C12.5836 18.4346 13.0381 18.2058 13.1045 18.2299C13.1708 18.2539 13.1504 18.301 13.1389 18.324C13.1274 18.3471 12.7785 18.5019 12.7785 18.5019C12.7785 18.5019 12.8734 18.5222 12.871 18.5613C12.8686 18.6003 12.8528 18.6186 12.8855 18.6442C12.9182 18.6699 12.9553 18.7159 12.9294 18.7453C12.9035 18.7748 12.9456 18.8074 12.9439 18.8529C12.9421 18.8984 12.8912 18.9546 12.7428 18.9894C12.5944 19.0241 12.2914 19.0697 11.9958 19.2014C11.7001 19.3331 9.245 20.1898 9.04336 20.1813C8.84172 20.1728 8.75997 19.9228 8.70694 19.8203C8.65391 19.7178 8.29297 18.5827 8.29297 18.5827L9.07387 18.4194Z" fill="#FF9692"/>
<path d="M9.08365 18.4347L8.30078 18.5987C8.30078 18.5987 8.38664 18.8694 8.48083 19.159C8.78739 19.0153 9.04852 18.7375 9.15628 18.6119L9.08365 18.4347Z" fill="#F68788"/>
<path d="M9.33352 18.3099C9.10079 18.0312 8.8761 17.4632 8.82119 17.3126C8.76627 17.162 8.66138 17.0027 8.42326 16.8375C8.18515 16.6724 7.875 17.2473 7.875 17.2473L8.38304 18.8683C8.9856 18.7803 9.33352 18.3099 9.33352 18.3099Z" fill="#64C2ED"/>
<path d="M8.37891 18.8761C8.43118 18.8684 8.48086 18.8571 8.52927 18.8443C8.51216 18.5264 8.46498 17.9396 8.46498 17.9396C8.44608 18.3027 8.37891 18.8761 8.37891 18.8761Z" fill="#33A1CE"/>
<path d="M8.76254 17.212C8.75412 17.0513 8.68903 16.9435 8.43222 16.8207C8.17542 16.6979 7.79773 16.6453 7.79773 16.6453L7.09055 16.6452C7.09055 16.6452 6.52523 16.5786 6.03986 16.9732C5.77069 17.1921 6.18674 19.0834 6.18674 19.0834C6.18674 19.0834 6.15604 20.0365 6.17835 20.7147C6.19127 21.1067 6.15603 21.5449 6.15603 21.5449C6.15603 21.5449 6.38756 21.6093 6.72233 21.5742C7.0571 21.5391 7.55918 21.6181 8.1952 21.504C8.83122 21.39 8.94007 21.0918 8.94007 21.0918C8.94007 21.0918 8.73086 20.2323 8.73086 19.7149C8.73086 19.1974 8.68341 18.8496 8.68341 18.8496C8.71735 17.9151 8.77523 17.4542 8.76254 17.212Z" fill="#64C2ED"/>
<path d="M8.36678 14.8353C8.38595 14.9454 8.38946 15.0584 8.37714 15.1696C8.36681 15.2626 8.34556 15.3573 8.36524 15.4487C8.37413 15.4899 8.39116 15.529 8.39764 15.5706C8.40413 15.6123 8.39769 15.66 8.36732 15.6877C8.34996 15.7036 8.32662 15.7113 8.31014 15.7282C8.28278 15.7562 8.28126 15.8012 8.28145 15.8413C8.28176 15.9125 8.28149 15.9852 8.26047 16.0529C8.23945 16.1206 8.19384 16.1839 8.1293 16.2062C8.10102 16.216 8.07083 16.2175 8.04115 16.2199C7.98847 16.224 7.93601 16.231 7.88402 16.2407C7.8543 16.2463 7.82375 16.2532 7.7993 16.2718C7.77486 16.2903 7.7581 16.3236 7.76666 16.3539L7.79393 16.6453C7.79393 16.6453 7.64328 16.8339 7.04911 16.6979C7.04911 16.6979 7.07842 16.1717 7.01565 16.0402C6.95287 15.9086 7.28765 14.9263 7.28765 14.9263L8.04502 14.5887L8.36678 14.8353Z" fill="#FF9692"/>
<path d="M7.29869 14.0942C7.48078 14.1097 7.56666 13.9177 7.82374 14.0285C7.8836 14.0544 7.9273 14.1094 7.97846 14.151C8.08263 14.2356 8.20966 14.2893 8.30142 14.3885C8.41822 14.5149 8.46151 14.7106 8.40961 14.8778C8.40243 14.901 8.39248 14.9251 8.37313 14.9386C8.34706 14.9569 8.31266 14.9508 8.28155 14.955C8.176 14.9691 8.10076 15.1033 7.99544 15.0871C7.96137 15.0819 7.93109 15.0607 7.8972 15.0542C7.82183 15.0398 7.75928 15.111 7.73349 15.1866C7.69215 15.3078 7.8334 15.5023 7.88881 15.5578C7.88881 15.5578 7.93066 15.6718 7.90557 15.7069C7.88048 15.7419 7.88293 15.7069 7.86497 15.8121C7.847 15.9174 7.89302 16.0489 7.78839 16.1015C7.68376 16.1542 7.63357 16.1015 7.54987 16.1541C7.46617 16.2068 7.34487 16.1541 7.21515 16.1541C7.08543 16.1541 6.97242 16.1103 6.89293 16.0708C6.81344 16.0314 6.70881 15.9261 6.70464 15.834C6.70048 15.7419 6.64608 15.7025 6.61678 15.5753C6.58747 15.4481 6.57493 15.2727 6.58748 15.2113C6.60002 15.15 6.52475 14.764 6.61679 14.6106C6.70883 14.4571 6.70049 14.4571 6.72559 14.3431C6.75068 14.229 6.95124 14.0645 7.29869 14.0942Z" fill="#5A3F62"/>
</svg>
